<?xml version="1.0" standalone="no"?>
<!DOCTYPE svg PUBLIC "-//W3C//DTD SVG 20010904//EN"
 "http://www.w3.org/TR/2001/REC-SVG-20010904/DTD/svg10.dtd">
<svg version="1.0" xmlns="http://www.w3.org/2000/svg"
 width="900.000000pt" height="900.000000pt" viewBox="0 0 900.000000 900.000000"
 preserveAspectRatio="xMidYMid meet">
<metadata>
Created by potrace 1.10, written by Peter Selinger 2001-2011
</metadata>
<g transform="translate(0.000000,900.000000) scale(0.100000,-0.100000)"
fill="#000000" stroke="none">
<path d="M1586 7304 c-9 -23 -7 -607 2 -622 7 -10 584 -12 2853 -10 l2844 3 0
320 0 320 -2846 3 c-2590 2 -2847 1 -2853 -14z"/>
<path d="M1587 6343 c-4 -3 -7 -147 -7 -319 0 -299 1 -314 19 -324 13 -7 928
-10 2844 -10 2353 0 2827 3 2836 14 8 9 10 108 9 327 l-3 314 -2846 3 c-1565
1 -2849 -1 -2852 -5z"/>
<path d="M1587 5323 c-4 -3 -7 -824 -7 -1823 0 -1527 2 -1819 14 -1829 9 -8
104 -11 327 -9 l314 3 3 1833 2 1832 -323 0 c-178 0 -327 -3 -330 -7z"/>
<path d="M2610 5318 c0 -7 0 -829 0 -1827 0 -1445 2 -1816 12 -1823 7 -4 153
-7 323 -5 l310 2 3 1833 2 1832 -325 0 c-253 0 -325 -3 -325 -12z"/>
<path d="M3560 4505 l0 -825 850 0 c560 0 850 3 850 10 0 6 0 372 0 815 0 443
0 810 0 815 0 7 -290 10 -850 10 l-850 0 0 -825z m1140 0 l0 -285 -287 2 -288
3 -3 270 c-1 148 0 275 3 282 3 10 69 13 290 13 l285 0 0 -285z"/>
<path d="M5687 5323 c-4 -3 -7 -826 -7 -1829 0 -1652 1 -1822 16 -1828 23 -9
607 -7 622 2 10 7 12 380 10 1833 l-3 1824 -316 3 c-173 1 -318 -1 -322 -5z"/>
<path d="M6646 5321 c-4 -5 -6 -827 -6 -1827 0 -1439 3 -1820 13 -1826 6 -4
148 -8 313 -8 242 0 304 3 313 14 8 10 10 496 9 1832 l-3 1819 -317 3 c-189 1
-319 -1 -322 -7z"/>
<path d="M3590 3301 c-15 -30 -14 -1613 2 -1629 16 -16 600 -17 629 -2 19 10
19 30 19 815 0 717 -2 805 -16 819 -13 14 -56 16 -319 16 -291 0 -305 -1 -315
-19z"/>
<path d="M4585 3308 c-3 -7 -4 -380 -3 -828 l3 -815 314 -3 c223 -2 318 1 327
9 12 10 14 146 14 813 0 487 -4 807 -10 816 -8 13 -57 15 -325 18 -250 2 -316
0 -320 -10z"/>
</g>
</svg>
