<?xml version="1.0" standalone="no"?>
<!DOCTYPE svg PUBLIC "-//W3C//DTD SVG 20010904//EN"
 "http://www.w3.org/TR/2001/REC-SVG-20010904/DTD/svg10.dtd">
<svg version="1.0" xmlns="http://www.w3.org/2000/svg"
 width="900.000000pt" height="849.000000pt" viewBox="0 0 900.000000 849.000000"
 preserveAspectRatio="xMidYMid meet">
<metadata>
Created by potrace 1.10, written by Peter Selinger 2001-2011
</metadata>
<g transform="translate(0.000000,849.000000) scale(0.100000,-0.100000)"
fill="#000000" stroke="none">
<path d="M5387 6741 c-49 -32 -72 -68 -106 -167 -11 -32 -30 -84 -41 -114 -12
-30 -25 -66 -30 -80 -15 -44 -68 -193 -90 -250 -21 -55 -74 -203 -90 -250 -5
-14 -23 -63 -40 -110 -18 -47 -38 -103 -45 -125 -8 -22 -23 -65 -35 -95 -12
-30 -27 -73 -35 -95 -16 -48 -56 -159 -85 -235 -12 -30 -27 -73 -35 -95 -7
-22 -27 -78 -45 -125 -17 -47 -34 -96 -37 -110 -3 -14 -9 -30 -14 -35 -4 -6
-19 -44 -33 -85 -27 -81 -79 -226 -89 -250 -4 -8 -25 -66 -47 -128 -21 -62
-42 -118 -46 -124 -4 -6 -10 -24 -14 -42 -5 -17 -18 -56 -30 -86 -11 -30 -30
-82 -41 -115 -12 -33 -27 -74 -35 -92 -8 -17 -14 -36 -14 -42 0 -6 -6 -25 -14
-43 -8 -18 -29 -73 -46 -123 -18 -49 -36 -99 -41 -110 -5 -11 -13 -33 -18 -50
-6 -16 -24 -68 -41 -115 -18 -47 -38 -103 -45 -125 -8 -22 -23 -65 -35 -95
-29 -76 -69 -187 -85 -235 -8 -22 -23 -65 -35 -95 -12 -30 -27 -73 -35 -95 -7
-22 -27 -78 -44 -125 -37 -99 -71 -194 -111 -305 -16 -44 -43 -118 -61 -165
-17 -47 -37 -103 -44 -125 -8 -22 -23 -65 -34 -95 -35 -92 -24 -168 32 -227
17 -18 45 -39 63 -48 42 -20 127 -19 167 1 37 19 97 81 97 100 0 7 6 28 14 46
21 49 41 103 76 203 18 50 38 106 45 125 8 19 28 76 45 125 18 50 38 104 46
122 8 17 14 36 14 42 0 6 6 25 14 43 8 18 29 74 46 123 18 50 36 99 41 110 5
11 13 34 18 50 6 17 24 68 41 115 18 47 38 103 45 125 8 22 23 65 35 95 12 30
27 73 35 95 7 22 27 78 45 125 17 47 44 121 59 165 16 44 43 118 61 165 17 47
37 103 45 125 15 46 55 156 85 235 12 30 32 87 45 125 13 39 33 95 45 125 20
53 73 199 90 250 5 14 23 63 40 110 18 47 38 103 45 125 8 22 23 65 35 95 29
76 69 187 85 235 8 22 23 65 35 95 12 30 25 66 30 80 16 47 69 195 90 250 12
30 32 87 45 125 13 39 34 95 45 125 12 30 25 66 30 80 15 44 68 193 90 250 22
57 75 206 90 250 5 14 19 50 31 80 33 81 36 157 8 211 -53 106 -183 142 -282
80z"/>
<path d="M3378 5300 c-15 -4 -37 -15 -50 -24 -53 -38 -1293 -1285 -1322 -1331
-72 -112 -75 -243 -11 -375 10 -20 307 -324 679 -695 618 -618 664 -661 710
-674 104 -30 209 29 243 136 16 50 16 56 -1 111 -18 56 -33 72 -609 646 -351
352 -595 603 -603 622 -10 25 -11 40 -3 66 8 23 181 203 605 628 499 500 596
602 609 639 18 53 19 69 3 122 -31 102 -145 161 -250 129z"/>
<path d="M5472 5299 c-65 -19 -132 -113 -132 -186 0 -76 10 -88 626 -703 525
-526 595 -600 600 -632 4 -20 4 -48 0 -61 -3 -13 -267 -285 -604 -623 l-598
-599 -13 -56 c-12 -49 -11 -63 3 -107 20 -60 72 -111 133 -131 37 -12 52 -12
100 -1 l58 14 661 660 c427 428 668 675 681 701 55 112 57 233 5 338 -27 55
-109 140 -689 719 -565 563 -664 658 -698 667 -47 13 -88 13 -133 0z"/>
</g>
</svg>
