<?xml version="1.0" standalone="no"?>
<!DOCTYPE svg PUBLIC "-//W3C//DTD SVG 20010904//EN"
 "http://www.w3.org/TR/2001/REC-SVG-20010904/DTD/svg10.dtd">
<svg version="1.0" xmlns="http://www.w3.org/2000/svg"
 width="900.000000pt" height="900.000000pt" viewBox="0 0 900.000000 900.000000"
 preserveAspectRatio="xMidYMid meet">
<metadata>
Created by potrace 1.10, written by Peter Selinger 2001-2011
</metadata>
<g transform="translate(0.000000,900.000000) scale(0.100000,-0.100000)"
fill="#000000" stroke="none">
<path d="M3248 6500 c-32 -4 -77 -12 -100 -18 -24 -6 -74 -18 -113 -28 -93
-22 -244 -68 -385 -116 -63 -22 -128 -43 -145 -47 -103 -27 -125 -51 -174
-186 -50 -139 -62 -162 -91 -185 -30 -23 -55 -73 -101 -205 -15 -44 -37 -105
-49 -135 -65 -172 -256 -745 -317 -950 -9 -30 -19 -66 -24 -80 -7 -23 -59
-216 -93 -350 -33 -127 -71 -299 -90 -410 -9 -47 -23 -130 -33 -185 -13 -75
-18 -155 -18 -320 0 -213 1 -223 28 -314 16 -52 40 -117 55 -144 15 -27 33
-61 41 -75 19 -35 135 -148 185 -180 23 -14 70 -41 106 -59 82 -41 167 -45
233 -12 59 30 273 247 487 494 463 532 547 598 815 639 117 18 1122 27 1705
16 391 -7 424 -12 575 -84 136 -66 179 -105 433 -393 35 -39 78 -89 95 -111
29 -36 188 -217 277 -316 61 -68 194 -194 240 -228 39 -29 54 -33 117 -37 69
-3 78 -1 145 34 100 51 147 85 211 152 90 93 144 189 183 323 27 93 27 504 1
660 -50 286 -89 464 -152 690 -7 25 -20 74 -30 110 -29 108 -143 472 -197 630
-57 167 -144 411 -165 465 -8 22 -21 56 -28 75 -7 19 -20 53 -28 75 -9 22 -28
74 -43 115 -17 46 -41 88 -62 110 -42 43 -50 60 -92 180 -49 140 -65 157 -190
199 -310 105 -580 178 -736 200 -121 18 -199 -12 -240 -92 -45 -86 -147 -152
-299 -193 -65 -18 -112 -19 -700 -19 l-630 0 -75 23 c-153 49 -227 99 -294
200 -50 74 -118 98 -238 82z m2922 -600 c22 -11 52 -39 67 -62 23 -34 28 -53
28 -104 0 -53 -4 -69 -30 -106 -34 -47 -101 -87 -150 -87 -42 -1 -106 31 -137
67 -104 124 -23 310 135 312 29 0 63 -8 87 -20z m-3112 -278 c85 -41 156 -112
199 -200 24 -49 28 -71 31 -163 4 -106 3 -107 -33 -183 -64 -131 -159 -207
-302 -241 -293 -70 -566 220 -488 519 66 254 354 384 593 268z m3547 -171 c46
-26 87 -92 92 -148 13 -131 -121 -242 -239 -197 -62 24 -96 60 -115 121 -14
46 -15 61 -5 99 21 78 63 119 152 148 23 7 82 -4 115 -23z m-886 5 c148 -77
128 -300 -31 -349 -70 -22 -118 -9 -174 47 -96 95 -72 237 51 304 29 16 121
15 154 -2z m-1588 -155 c50 -50 32 -125 -36 -151 -89 -34 -157 80 -89 151 38
40 85 40 125 0z m834 -1 c42 -44 40 -93 -4 -132 -28 -25 -39 -29 -70 -24 -76
12 -106 95 -55 155 36 43 88 43 129 1z m1205 -290 c22 -11 52 -39 67 -62 23
-34 28 -53 28 -104 0 -53 -4 -69 -30 -106 -61 -88 -171 -111 -254 -53 -108 74
-107 237 1 315 51 37 127 41 188 10z m-2338 -178 c21 -21 23 -33 26 -150 2
-70 8 -132 13 -138 6 -7 59 -13 136 -16 121 -4 126 -5 148 -30 44 -51 44 -189
0 -244 -23 -29 -23 -29 -157 -34 l-133 -5 -5 -125 c-3 -84 -10 -132 -19 -146
-41 -61 -231 -57 -262 5 -8 15 -16 76 -19 146 l-5 120 -127 3 -127 3 -25 30
c-27 31 -31 54 -27 149 4 115 26 130 185 130 66 0 106 4 114 12 8 8 12 50 12
123 0 88 4 117 19 145 23 43 44 49 148 47 71 -2 86 -5 105 -25z m1528 -30 c79
-24 138 -62 197 -125 192 -203 126 -529 -133 -657 -57 -28 -83 -35 -151 -38
-207 -11 -380 118 -428 319 -35 151 -2 277 103 386 108 113 274 159 412 115z"/>
</g>
</svg>
