<svg xmlns="http://www.w3.org/2000/svg" x="0px" y="0px" width="100" height="100" viewBox="0,0,256,256">
<g fill="#199abb" fill-rule="nonzero" stroke="none" stroke-width="1" stroke-linecap="butt" stroke-linejoin="miter" stroke-miterlimit="10" stroke-dasharray="" stroke-dashoffset="0" font-family="none" font-weight="none" font-size="none" text-anchor="none" style="mix-blend-mode: normal"><g transform="scale(10.66667,10.66667)"><path d="M3.33789,1.00586c-0.803,-0.046 -1.6212,0.33439 -2.0332,1.02539c-0.199,0.337 -0.30073,0.7058 -0.30273,1.0918c-0.001,0.931 0.59998,1.68767 0.95898,2.13867c0.063,0.08 0.12069,0.14938 0.17969,0.23438l0.16211,0.21484c0.162,0.211 0.34339,0.44836 0.40039,0.56836c0.02,0.056 0.04608,0.15339 0.08008,0.27539c0.157,0.565 0.45002,1.61506 0.91602,2.41406c0.187,0.323 0.45258,0.72672 0.64258,1.01172c-0.127,0.636 -0.3418,1.80753 -0.3418,2.51953c0,1.25 0.25922,2.25388 0.82422,3.17188c0.209,0.328 0.84678,1.32813 1.92578,1.32813c0.383,0 1.01941,-0.14961 1.19141,-1.09961c0.765,0.987 1.68606,2.03476 3.28906,3.00977c0.079,0.052 0.16853,0.08984 0.26953,0.08984c0.276,0 0.5,-0.224 0.5,-0.5c0,-0.167 -0.08784,-0.30744 -0.21484,-0.39844c-1.37,-1.321 -3.18016,-3.53384 -3.91016,-5.33984c-0.151,-0.375 -0.64819,-0.4318 -0.86719,-0.0918c-0.228,0.355 -0.49419,0.83445 -0.74219,1.43945c-0.181,-0.458 -0.26562,-0.97438 -0.26562,-1.60937c0,-0.466 0.26344,-1.86183 0.39844,-2.54883c0.05,-0.253 -0.00148,-0.5067 -0.14648,-0.7207c-0.246,-0.363 -0.63222,-0.93858 -0.82422,-1.26758c-0.336,-0.576 -0.5838,-1.46731 -0.7168,-1.94531c-0.064,-0.232 -0.11606,-0.40163 -0.16406,-0.51562c-0.175,-0.38 -0.4303,-0.71381 -0.6543,-1.00781l-0.12695,-0.16406c-0.063,-0.091 -0.14623,-0.19745 -0.24023,-0.31445c-0.183,-0.23 -0.52367,-0.65759 -0.51367,-0.93359l0.11133,-0.07812l0.00195,-0.00391c0.795,0 1.81908,0.56339 2.20508,0.77539c0.125,0.069 0.21858,0.11667 0.26758,0.13867l0.17383,0.07617l0.3418,0.01367c0.447,0.01 1.80563,0.03983 2.76562,0.42383c1.751,0.7 2.71912,1.40264 3.70312,2.68164c1.321,1.717 2.1683,3.72067 2.6543,5.13867c0.226,0.658 0.42302,1.40858 0.54102,1.89258c0.077,0.317 0.30538,0.56855 0.60938,0.68555c0.439,0.169 1.09423,0.44553 1.61523,0.76953c0.443,0.275 0.93792,0.63198 1.41992,1.08398c-1.095,0.271 -1.75552,0.70305 -2.10352,0.99805c-0.206,0.175 -0.22383,0.4815 -0.04883,0.6875c0.338,0.398 1.08642,1.05781 2.48242,2.00781c1.049,0.714 2.15719,2.12145 2.36719,2.43945c0.091,0.113 0.22486,0.1875 0.38086,0.1875c0.276,0 0.5,-0.224 0.5,-0.5c0,-0.104 -0.03194,-0.1993 -0.08594,-0.2793c-0.018,-0.026 -0.14917,-0.24589 -0.20117,-0.33789c-0.5,-0.883 -1.4452,-2.154 -2.4082,-3.375c0.656,-0.21 1.39278,-0.36394 1.92578,-0.46094c0.355,-0.065 0.52726,-0.47448 0.32227,-0.77148c-0.274,-0.395 -0.67473,-0.92503 -1.17773,-1.45703c-1.411,-1.492 -2.96134,-2.3385 -3.77734,-2.6875c-0.333,-1.267 -1.33469,-4.51723 -3.42969,-7.24023c-1.199,-1.559 -2.47487,-2.49131 -4.54688,-3.32031c-1.227,-0.49 -2.70238,-0.54845 -3.35938,-0.56445c-0.543,-0.298 -1.71383,-0.931 -2.92383,-1zM7.14063,5c-0.015,0 -0.36267,0.00156 -0.76367,0.10156c-0.081,0.021 -0.14678,0.0802 -0.17578,0.1582c-0.028,0.078 -0.0158,0.16442 0.0332,0.23242l1.0332,1.40625c0.047,0.064 0.10417,0.12656 0.20117,0.10156c0.079,0 0.15317,-0.03661 0.20117,-0.09961c0.327,-0.436 0.33008,-0.94189 0.33008,-0.96289c0,-0.03 -0.00462,-0.05989 -0.01562,-0.08789c-0.009,-0.024 -0.23114,-0.60013 -0.74414,-0.82812c-0.032,-0.014 -0.06561,-0.02148 -0.09961,-0.02148z"></path></g></g>
</svg>