<svg xmlns="http://www.w3.org/2000/svg" x="0px" y="0px" width="100" height="100" viewBox="0,0,256,256">
<g fill="none" fill-rule="nonzero" stroke="none" stroke-width="1" stroke-linecap="butt" stroke-linejoin="miter" stroke-miterlimit="10" stroke-dasharray="" stroke-dashoffset="0" font-family="none" font-weight="none" font-size="none" text-anchor="none" style="mix-blend-mode: normal"><g transform="scale(5.33333,5.33333)"><path d="M47.73,25c-1.727,-6.308 -11.53,-11 -23.73,-11c-12.2,0 -22.003,4.692 -23.73,11h-0.27v2c0,7.29 10.542,13 24,13c13.458,0 24,-5.71 24,-13v-2z" fill="#777bb3"></path><ellipse cx="24" cy="25" rx="23" ry="12" fill="#ffffff"></ellipse><path d="M31.028,20l-2.028,11h2.646l0.527,-3h1.646c3.446,0 5.321,-0.798 6.022,-3.756c0.603,-2.541 -0.938,-4.244 -3.48,-4.244zM34.256,26h-1.71l0.755,-4h2.061c1.708,0 2.067,0.77 1.978,1.627c-0.229,2.206 -1.604,2.373 -3.084,2.373z" fill="#777bb3"></path><path d="M10.028,20l-2.028,11h2.646l0.527,-3h1.646c3.446,0 5.321,-0.798 6.022,-3.756c0.603,-2.541 -0.938,-4.244 -3.48,-4.244zM13.256,26h-1.71l0.755,-4h2.061c1.708,0 2.067,0.77 1.978,1.627c-0.229,2.206 -1.604,2.373 -3.084,2.373z" fill="#777bb3"></path><path d="M28.71,20.727c-0.565,-0.518 -1.561,-0.727 -3.046,-0.727h-2.339l0.834,-4h-2.624l-2.507,12h2.625l1.266,-6h2.098c0.669,0 1.111,0.112 1.317,0.333c0.205,0.223 0.25,0.643 0.131,1.251l-0.958,4.416h2.666l1.038,-4.778c0.223,-1.145 0.054,-1.985 -0.501,-2.495z" fill="#777bb3"></path><path d="M24,38c-13.458,0 -24,-5.71 -24,-13c0,-7.29 10.542,-13 24,-13c13.458,0 24,5.71 24,13c0,7.29 -10.542,13 -24,13zM24,14c-11.925,0 -22,5.037 -22,11c0,5.963 10.075,11 22,11c11.925,0 22,-5.037 22,-11c0,-5.963 -10.075,-11 -22,-11z" fill="#777bb3"></path></g></g>
</svg>